<?xml version="1.0" encoding="utf-8"?>
<!-- Generator: Adobe Illustrator 28.1.0, SVG Export Plug-In . SVG Version: 6.00 Build 0)  -->
<svg version="1.1"
	 id="svg2" xmlns:svg="http://www.w3.org/2000/svg" xmlns:sodipodi="http://sodipodi.sourceforge.net/DTD/sodipodi-0.dtd" xmlns:inkscape="http://www.inkscape.org/namespaces/inkscape" xmlns:rdf="http://www.w3.org/1999/02/22-rdf-syntax-ns#" xmlns:cc="http://creativecommons.org/ns#" xmlns:dc="http://purl.org/dc/elements/1.1/"
	 xmlns="http://www.w3.org/2000/svg" xmlns:xlink="http://www.w3.org/1999/xlink" x="0px" y="0px" viewBox="0 0 48.1 47.5"
	 style="enable-background:new 0 0 48.1 47.5;" xml:space="preserve">
<style type="text/css">
	.st0{clip-path:url(#SVGID_00000132773261467101716300000014806284874636731540_);}
	.st1{fill:#FFFFFF;}
	.st2{fill:#C80D21;}
	.st3{fill-opacity:0;}
</style>
<sodipodi:namedview  bordercolor="#666666" borderopacity="1" fit-margin-bottom="0" fit-margin-left="0" fit-margin-right="0" fit-margin-top="0" gridtolerance="10" guidetolerance="10" id="namedview4" inkscape:current-layer="g10" inkscape:cx="137.72722" inkscape:cy="46.566163" inkscape:pageopacity="0" inkscape:pageshadow="2" inkscape:window-height="1001" inkscape:window-maximized="0" inkscape:window-width="944" inkscape:window-x="960" inkscape:window-y="0" inkscape:zoom="2.3715686" objecttolerance="10" pagecolor="#ffffff" showgrid="false">
	</sodipodi:namedview>
<g>
	<defs>
		<rect id="SVGID_1_" x="-640.8" y="-357.8" width="990" height="765"/>
	</defs>
	<clipPath id="SVGID_00000045601473602285509330000013737349092389838772_">
		<use xlink:href="#SVGID_1_"  style="overflow:visible;"/>
	</clipPath>
	
		<g id="g10" transform="matrix(0,-1.25,-1.25,0,416.625,407.7425)" inkscape:groupmode="layer" inkscape:label="Sound Transit Signage Design Manual, 2004" style="clip-path:url(#SVGID_00000045601473602285509330000013737349092389838772_);">
		<g id="g16" transform="translate(594,784)">
			<path id="path18" inkscape:connector-curvature="0" class="st1" d="M0.5,53.9L0.5,53.9"/>
		</g>
		<g id="g650" transform="translate(306.715,279.051)">
			<path id="path652" inkscape:connector-curvature="0" class="st1" d="M0.5,53.9c10.5,0,19-8.5,19-19c0-10.5-8.5-19-19-19
				c-10.5,0-19,8.5-19,19C-18.6,45.4-10,53.9,0.5,53.9"/>
		</g>
		<g id="g654" transform="translate(306.715,277.565)">
			<path id="path656" inkscape:connector-curvature="0" class="st2" d="M0.5,53.9c9.7,0,17.5-7.8,17.5-17.5S10.1,18.8,0.5,18.8
				s-17.5,7.8-17.5,17.5S-9.2,53.9,0.5,53.9"/>
		</g>
		<g id="g658" transform="translate(304.751,271.373)">
			<path id="path660" inkscape:connector-curvature="0" class="st1" d="M0.5,53.9v-9.7c0.5-0.2,1.1-0.5,1.7-0.7
				c0.7-0.2,1.3-0.4,1.8-0.5l0.1,0.7c-0.6,0.3-1.1,0.5-1.6,0.7c-0.4,0.2-0.8,0.6-1,1c-0.2,0.5-0.4,1.2-0.4,2.1c0,0.4,0,0.8,0.1,1.1
				c0.1,0.4,0.1,0.7,0.3,1.1L7,49.1v-2c0-0.6,0-1.1-0.1-1.2c-0.1-0.2-0.3-0.3-0.7-0.3H5.4V45l3.8-0.6V45l-0.8,0.2
				c-0.3,0.1-0.6,0.3-0.6,0.5c-0.1,0.3-0.1,0.7-0.1,1.3V49l5.3-0.8v-2.3c0-0.9-0.2-1.5-0.6-1.7c-0.4-0.3-1.1-0.4-2.1-0.4V43
				c0.1,0,0.4-0.1,0.7-0.1c0.3,0,0.6-0.1,1-0.1c0.3,0,0.6-0.1,0.8-0.1c0.1,0,0.3,0,0.4,0c0.1,0,0.3,0,0.4,0v9.2l-0.5,0.1l-0.1-0.7
				c0-0.2-0.1-0.4-0.3-0.5c-0.1-0.1-0.2-0.1-0.4-0.1c-0.2,0-0.4,0-0.6,0.1c-0.3,0-0.5,0.1-0.6,0.1L3,52.1c-0.7,0.1-1.2,0.2-1.4,0.3
				c-0.3,0.1-0.4,0.3-0.5,0.7L1,53.8L0.5,53.9"/>
		</g>
		<g id="g662" transform="translate(294.89,258.659)">
			<path id="path664" inkscape:connector-curvature="0" class="st1" d="M0.5,53.9v-6L1,47.8l0.1,1c0,0.2,0.1,0.3,0.1,0.5
				c0.1,0.1,0.2,0.2,0.5,0.2c0.3,0,0.6,0,0.8-0.1L13,47.7v-1.3c0-0.6-0.1-1.1-0.3-1.4c-0.2-0.3-0.5-0.5-0.9-0.5
				c-0.4-0.1-0.9-0.1-1.5-0.1v-0.7c0.7-0.1,1.3-0.2,1.8-0.2c0.5,0,1-0.1,1.7-0.1v10.9c-0.5,0.2-1.1,0.4-1.7,0.5
				c-0.6,0.1-1.2,0.2-1.8,0.3v-0.7c0.6-0.2,1.1-0.4,1.5-0.6c0.4-0.2,0.7-0.5,0.9-0.8c0.2-0.3,0.3-0.9,0.3-1.5v-1.3L2.5,51.8
				c-0.5,0.1-0.8,0.1-1.1,0.2c-0.2,0.1-0.4,0.3-0.4,0.7L1,53.8L0.5,53.9"/>
		</g>
		<path id="path4051" inkscape:connector-curvature="0" class="st3" d="M289.9,316.1c0.5,4,2.5,7.7,5.3,10.4c3.1,3,6.9,4.6,11.2,4.8
			c7.7,0.4,14.7-4.5,17.3-11.9c2.5-7.5-0.4-15.8-7-20.1c-5.2-3.4-11.5-3.8-17.1-1c-4.9,2.4-8.4,6.9-9.5,12.3
			C289.8,312,289.7,314.7,289.9,316.1z M295.6,306.4c0.3,0,0.4,0.1,0.4,0.4c0,0.8,0.2,1.2,0.7,1.2c0.2,0,2.8-0.4,5.7-0.8l5.3-0.8
			l0-0.9c0.1-1.1-0.2-1.9-0.8-2.1c-0.2-0.1-0.7-0.2-1.2-0.2c-0.7-0.1-0.8-0.1-0.8-0.5c0-0.4-0.2-0.4,2.7-0.7l1-0.1v5.6v5.6l-1,0.3
			c-0.5,0.2-1.2,0.3-1.6,0.4c-0.3,0.1-0.7,0.1-0.8,0.2c-0.2,0.1-0.3,0-0.3-0.3c0-0.4,0.1-0.5,1.1-0.9c1.4-0.7,1.6-1,1.7-2.5l0.1-1.2
			l-0.4,0.1c-0.2,0-2.7,0.5-5.6,0.9c-2.8,0.4-5.3,0.9-5.4,0.9c-0.3,0.1-0.4,0.7-0.4,1.4c0,0.2-0.1,0.3-0.1,0.3c-0.1,0-0.2,0-0.4,0.1
			c-0.2,0.1-0.2-0.2-0.2-3.1v-3.2H295.6L295.6,306.4z M306.2,315.1c1-0.4,2.5-0.8,2.6-0.7c0,0,0.1,0.2,0.1,0.4
			c0.1,0.3,0,0.4-0.7,0.7c-1.8,0.8-2.2,1.5-2.1,3.8c0,0.8,0.1,1.5,0.2,1.6c0.1,0.1,0.8,0.1,2.7-0.2l2.6-0.4v-1.5
			c0-1-0.1-1.5-0.2-1.7c-0.1-0.1-0.4-0.2-0.7-0.2c-0.5,0-0.6,0-0.6-0.4v-0.4l1.7-0.3c0.9-0.1,1.8-0.3,2-0.3c0.2-0.1,0.3,0,0.3,0.3
			c0,0.4-0.1,0.4-0.6,0.6c-0.8,0.3-1,0.7-1,2.3c0,1.2,0,1.4,0.3,1.3c0.1,0,1.1-0.2,2.2-0.4c1.1-0.2,2.2-0.3,2.4-0.4l0.4-0.1
			l-0.1-1.6c0-0.9-0.2-1.7-0.3-1.9c-0.2-0.4-1-0.7-1.7-0.7c-0.6,0-0.6,0-0.6-0.4c0-0.5,0.2-0.6,1.9-0.7l1.4-0.1v4.7
			c0,4.5,0,4.7-0.3,4.7c-0.2,0-0.3-0.2-0.4-0.5c-0.1-0.5-0.2-0.6-0.6-0.6c-0.5,0-9.5,1.3-10.4,1.6c-0.6,0.2-0.8,0.5-0.8,1
			c0,0.3-0.4,0.6-0.6,0.6c0,0-0.1-2.2-0.1-4.9v-4.9C305.2,315.5,306.2,315.1,306.2,315.1z"/>
		<path id="path4053" inkscape:connector-curvature="0" class="st3" d="M289.9,316.1c0.5,4,2.5,7.7,5.3,10.4c3.1,3,6.9,4.6,11.2,4.8
			c7.7,0.4,14.7-4.5,17.3-11.9c2.5-7.5-0.4-15.8-7-20.1c-5.2-3.4-11.5-3.8-17.1-1c-4.9,2.4-8.4,6.9-9.5,12.3
			C289.8,312,289.7,314.7,289.9,316.1z M295.6,306.4c0.3,0,0.4,0.1,0.4,0.4c0,0.8,0.2,1.2,0.7,1.2c0.2,0,2.8-0.4,5.7-0.8l5.3-0.8
			l0-0.9c0.1-1.1-0.2-1.9-0.8-2.1c-0.2-0.1-0.7-0.2-1.2-0.2c-0.7-0.1-0.8-0.1-0.8-0.5c0-0.4-0.2-0.4,2.7-0.7l1-0.1v5.6v5.6l-1,0.3
			c-0.5,0.2-1.2,0.3-1.6,0.4c-0.3,0.1-0.7,0.1-0.8,0.2c-0.2,0.1-0.3,0-0.3-0.3c0-0.4,0.1-0.5,1.1-0.9c1.4-0.7,1.6-1,1.7-2.5l0.1-1.2
			l-0.4,0.1c-0.2,0-2.7,0.5-5.6,0.9c-2.8,0.4-5.3,0.9-5.4,0.9c-0.3,0.1-0.4,0.7-0.4,1.4c0,0.2-0.1,0.3-0.1,0.3c-0.1,0-0.2,0-0.4,0.1
			c-0.2,0.1-0.2-0.2-0.2-3.1v-3.2H295.6L295.6,306.4z M306.2,315.1c1-0.4,2.5-0.8,2.6-0.7c0,0,0.1,0.2,0.1,0.4
			c0.1,0.3,0,0.4-0.7,0.7c-1.8,0.8-2.2,1.5-2.1,3.8c0,0.8,0.1,1.5,0.2,1.6c0.1,0.1,0.8,0.1,2.7-0.2l2.6-0.4v-1.5
			c0-1-0.1-1.5-0.2-1.7c-0.1-0.1-0.4-0.2-0.7-0.2c-0.5,0-0.6,0-0.6-0.4v-0.4l1.7-0.3c0.9-0.1,1.8-0.3,2-0.3c0.2-0.1,0.3,0,0.3,0.3
			c0,0.4-0.1,0.4-0.6,0.6c-0.8,0.3-1,0.7-1,2.3c0,1.2,0,1.4,0.3,1.3c0.1,0,1.1-0.2,2.2-0.4c1.1-0.2,2.2-0.3,2.4-0.4l0.4-0.1
			l-0.1-1.6c0-0.9-0.2-1.7-0.3-1.9c-0.2-0.4-1-0.7-1.7-0.7c-0.6,0-0.6,0-0.6-0.4c0-0.5,0.2-0.6,1.9-0.7l1.4-0.1v4.7
			c0,4.5,0,4.7-0.3,4.7c-0.2,0-0.3-0.2-0.4-0.5c-0.1-0.5-0.2-0.6-0.6-0.6c-0.5,0-9.5,1.3-10.4,1.6c-0.6,0.2-0.8,0.5-0.8,1
			c0,0.3-0.4,0.6-0.6,0.6c0,0-0.1-2.2-0.1-4.9v-4.9C305.2,315.5,306.2,315.1,306.2,315.1z"/>
	</g>
</g>
</svg>
