<?xml version="1.0" encoding="utf-8"?>
<!-- Generator: Adobe Illustrator 28.1.0, SVG Export Plug-In . SVG Version: 6.00 Build 0)  -->
<svg version="1.1"
	 id="svg2" xmlns:svg="http://www.w3.org/2000/svg" xmlns:sodipodi="http://sodipodi.sourceforge.net/DTD/sodipodi-0.dtd" xmlns:inkscape="http://www.inkscape.org/namespaces/inkscape" xmlns:rdf="http://www.w3.org/1999/02/22-rdf-syntax-ns#" xmlns:cc="http://creativecommons.org/ns#" xmlns:dc="http://purl.org/dc/elements/1.1/"
	 xmlns="http://www.w3.org/2000/svg" xmlns:xlink="http://www.w3.org/1999/xlink" x="0px" y="0px" viewBox="0 0 23.9 23.9"
	 style="enable-background:new 0 0 23.9 23.9;" xml:space="preserve">
<style type="text/css">
	.st0{fill:#FFFFFF;}
	.st1{fill-rule:evenodd;clip-rule:evenodd;fill:#231F20;}
</style>
<sodipodi:namedview  bordercolor="#666666" borderopacity="1" fit-margin-bottom="0" fit-margin-left="0" fit-margin-right="0" fit-margin-top="0" gridtolerance="10" guidetolerance="10" id="namedview4" inkscape:current-layer="g10" inkscape:cx="83.619643" inkscape:cy="24.895134" inkscape:pageopacity="0" inkscape:pageshadow="2" inkscape:window-height="480" inkscape:window-maximized="0" inkscape:window-width="640" inkscape:window-x="657" inkscape:window-y="0" inkscape:zoom="2.3316919" objecttolerance="10" pagecolor="#ffffff" showgrid="false">
	</sodipodi:namedview>
<g id="g10" transform="matrix(1.25,0,0,-1.25,-294.11125,478.75)" inkscape:groupmode="layer" inkscape:label="King County Metro Strategic Plan, 2011-2021">
	<path id="path456" inkscape:connector-curvature="0" class="st0" d="M235.4,363.9h19.1V383h-19.1V363.9z"/>
	<g id="g458" transform="translate(243.392,370.455)">
		<path id="path460" inkscape:connector-curvature="0" class="st1" d="M0,0c-0.2-0.1-0.4-0.6-0.1-0.4c0.1,0.1,0.4,0.2,0.5,0.3
			c0.4,0.1,0.6-0.2,1-0.1c0.2,0,0.3,0.2,0.4,0.3c0.1,0,0.2,0.1,0.3,0.1c0.2,0,0.6,0,0.7,0.1c0,0.1-0.3,0.2-0.4,0.3
			C2,0.6,1.8,0.6,1.5,0.6C0.9,0.5,0.4,0.3,0,0 M2.8,3.9C2.7,3.7,2.5,3.4,2.6,3.2C2.8,3,3.3,3,3.5,3.2c0.6,0.3,0.5,1.3-0.1,1.3
			C3.1,4.4,2.9,4.2,2.8,3.9 M3.8,7.9C3.7,7.7,3.5,7.6,3.5,7.4c0-0.5,0.3-0.6,0.4-0.9c0-0.2-0.1-0.5-0.1-0.7C3.7,4.8,4.9,4.4,5.1,3.9
			c0-0.1,0.1-0.2,0.1-0.2c0-0.4-0.4-0.1-0.6-0.3C4.4,3.3,4.4,3.1,4.2,2.9C4.1,2.6,3.7,2.5,3.8,2.3c0-0.1,0.3-0.3,0.4-0.4
			c0.2-0.1,0.6-0.3,1-0.4c0.7-0.2,1.2-0.2,1.4-0.9C6.6,0.4,6.6,0,6.9,0c0.2,0,0.3,0.3,0.4,0.5c0.3,1.2,0.3,2.4,0.4,3.9
			c0.1,1.1,0.7,1.9,0.7,2.8c0,0.3-0.2,0.7-0.3,0.8C7.7,8.3,6.8,8.2,6.3,8.1C6.2,8,5.9,7.8,5.7,8C5.6,8.1,5.9,8.3,5.8,8.4
			c-0.1,0.1-0.2,0-0.2,0c-0.1,0-0.3-0.1-0.4,0C5,8.4,4.8,8.7,4.7,8.7c-0.1,0.1-0.6,0-0.6,0C3.9,8.6,3.9,8.2,3.8,7.9 M4,10.2
			c-0.1-0.1-0.8-0.6-0.6-0.8c0.1-0.1,0.6,0,0.8,0.1c0.5,0.1,1,0.3,1.5,0.4C6,10,6.4,10,6.4,10.2c0,0.1-0.4,0.4-0.6,0.6
			c-0.2,0.1-0.5,0.2-0.7,0.2C4.7,10.9,4.4,10.5,4,10.2 M-8.1,12.5h3c0-1.3,0.1-2.4,0.2-3.5c0-0.2,0-0.4,0-0.6c0-0.2-0.1-0.4-0.1-0.6
			c0-0.4,0.2-0.6,0.3-1c0.1-0.5,0-1.1,0.1-1.6c0.1-1,0.4-1.8,0.7-2.6c0.2-0.4,0.2-0.9,0.4-1.3c0.1-0.4,0.2-0.9,0.4-1.3
			C-2.8-0.6-2.3-1.3-1.8-2c0.2-0.3,0.4-0.7,0.7-1c0.2-0.2,0.6-0.4,0.8-0.7c0.4-0.4,0.6-1.1,1.1-1.4c0.2-0.1,0.6-0.3,1-0.2
			C2.2-5.3,2.6-5,3-5c0.4,0.1,0.7,0.1,0.9,0.3C4-4.5,4-4.1,3.9-3.9C3.7-3.2,2.5-3.5,1.6-3.5c-0.6,0-0.9,0-0.9,0.5
			c0,0.2,0,0.4,0.1,0.5c0.2,0.1,0.5,0,0.9,0.1c0.5,0,1,0.1,1.3,0.3c0.1,0.1,0.3,0.2,0.4,0.3c0.1,0.1,0.3,0.4,0.2,0.5
			c-0.1,0.3-1,0.4-1.5,0.3C1.8-0.9,1.7-1.1,1.5-1.1c-0.3,0-0.7,0.2-1.1,0.1c-0.1,0-0.1-0.1-0.2-0.1c-0.3-0.2-0.3-0.5-0.6-0.6
			c-0.2-0.1-0.6,0-0.7,0.1c-0.2,0.2-0.6,1-0.3,1.4c0.1,0.1,0.2,0.1,0.2,0.2C-1,0.1-1,0.5-0.8,0.7c0.1,0.1,0.4,0.1,0.6,0.2
			c0.1,0.1,0.3,0.3,0.4,0.5c0,0.2,0.1,0.5,0,0.6C0.1,2.1-0.4,2-0.4,2.2c0,0.2,0.5,0.2,0.7,0.3c0.2,0.1,0.2,0.4,0.4,0.6
			c0.1,0.1,0.5,0.3,0.7,0.3c0.3,0,0.6-0.1,0.8,0.1C2.3,3.7,2.2,4.1,2,4.3C1.9,4.4,1.6,4.5,1.6,4.7c-0.1,0.2,0,0.6,0,0.9
			c0,0.8-0.1,1.7-0.5,2.2C1,8,0.8,8.1,0.7,8.2C0.6,8.2,0.4,8.4,0.4,8.5c0,0.1,0.1,0.2,0.3,0.3C1,9.1,1.4,9.5,1.5,10.1
			c0,0.1-0.1,0.2,0,0.3c0,0.1,0.4,0.3,0.5,0.4c0.2,0.2,0.4,0.2,0.6,0.3c0.8,0.5,1.4,0.8,2.5,1.1c0.5,0.1,1.3,0.3,1.3,0.3h2.6l2.2,0
			V-6.7H-8.1"/>
	</g>
	<g id="g462" transform="translate(240.493,379.84)">
		<path id="path464" inkscape:connector-curvature="0" class="st1" d="M0,0c0.4,0.1,1-0.1,1.3-0.2C1.6-0.4,1.8-0.6,1.8-1
			c0-0.1,0-0.3,0-0.5c0-0.2,0.1-0.4,0-0.5C1.8-2.3,1.1-2.8,0.7-2.7c-0.3,0-0.5,0.4-0.8,0.4c-0.1,0-0.3-0.1-0.5-0.2
			c-0.1,0-0.4-0.2-0.5,0c0,0.1,0.2,0.5,0.2,0.6c0.3,0.2,0.9,0.1,1,0.5c0.1,0.5-1,0.3-1,0.6c-0.1,0.2,0.2,0.3,0.3,0.4
			C-0.4-0.2-0.3,0,0,0"/>
	</g>
	<g id="g466" transform="translate(242.48,373.322)">
		<path id="path468" inkscape:connector-curvature="0" class="st1" d="M0,0c0.3,0.1,0.1-0.5,0-0.7C-0.1-0.9-0.2-1-0.3-1.1
			c-0.1,0-0.2,0.1-0.2,0.2C-0.6-0.7-0.1,0,0,0"/>
	</g>
</g>
</svg>
