<?xml version="1.0" encoding="UTF-8"?>
<svg id="svg2585" xmlns="http://www.w3.org/2000/svg" viewBox="0 0 48.97 45">
  <defs>
    <style>
      .cls-1 {
        fill: #70b347;
      }

      .cls-1, .cls-2 {
        stroke-width: 0px;
      }

      .cls-2 {
        fill: #196db3;
      }
    </style>
  </defs>
  <g id="g2031">
    <path id="path2033" class="cls-1" d="M24.31,19.95l.74,1.18,2.81-1.84-.66-.89-2.89,1.55Z"/>
  </g>
  <g id="g2035">
    <path id="path2037" class="cls-1" d="M30,16.73l.51.86,2.42-1.27-.39-.72-2.54,1.13Z"/>
  </g>
  <g id="g2039">
    <path id="path2041" class="cls-1" d="M35.32,14.54l.3.73,2.18-.68-.17-.62-2.3.57Z"/>
  </g>
  <g id="g2043">
    <path id="path2045" class="cls-1" d="M40.11,13.44l.07.57,1.86-.24-.05-.52-1.88.2Z"/>
  </g>
  <g id="g2047">
    <path id="path2049" class="cls-1" d="M44.46,13.07v.46s1.36-.07,1.36-.07v-.41s-1.36.02-1.36.02Z"/>
  </g>
  <g id="g2051">
    <path id="path2053" class="cls-1" d="M24,17.04l-.25.13-.13-.25C19.92,9.96,20.19,2.89,20.5.02h-.56c-.95,6.73.52,12.9,3.5,18.47,9.57-5.64,18.8-6.3,25.35-5.66v-.09c-11.71-2.35-24.66,4.24-24.79,4.31"/>
  </g>
  <g id="g2055">
    <path id="path2057" class="cls-1" d="M23.99,16.42c1.87-.91,13.83-6.41,24.8-4.26v-.33C48.84,5.44,43.6.05,37.21.01h-16.14c-.31,2.72-.61,9.58,2.92,16.4"/>
  </g>
  <g id="g2059">
    <path id="path2061" class="cls-1" d="M28.02,23.38l-.12-.18.14-.16c3.09-3.41,9.19-7.75,20.74-9.1v-.2c-9.68-.12-16.98,3.58-22.5,9.31,5.68,7.93,14.57,14.88,22.69,19.82v-1.75c-14.87-8.73-20.9-17.65-20.95-17.74"/>
  </g>
  <g id="g2063">
    <path id="path2065" class="cls-1" d="M28.62,23.26c.88,1.27,6.97,9.07,20.32,16.97l-.16-25.72c-11.14,1.32-17.1,5.44-20.16,8.74"/>
  </g>
  <g id="g2067">
    <path id="path2069" class="cls-2" d="M18.09,39.16c1.01-2.64,2.05-5.37,2.67-6.76l.25-.57.26.56c.04.09,1.48,4.42,7.83,12.6h1.34c-4.23-5.3-7.24-10.33-9.38-15.13-2.84,4.59-5.02,9.85-6.65,15.13h1.39c.56-1.31,1.51-3.79,2.29-5.84"/>
  </g>
  <g id="g2071">
    <path id="path2073" class="cls-2" d="M18.62,39.36c-1.11,2.9-1.77,4.65-2.19,5.64h11.88c-2.97-3.08-6.31-9.78-7.28-11.8-.62,1.48-1.53,3.85-2.41,6.16"/>
  </g>
  <g id="g2075">
    <path id="path2077" class="cls-2" d="M23.9,26.66l1.11-.9,2.2,3.01-1.29.82-2.02-2.93Z"/>
  </g>
  <g id="g2079">
    <path id="path2081" class="cls-2" d="M27.31,31.53l1.32-.85,2.3,2.93-1.39.92-2.22-3.01Z"/>
  </g>
  <g id="g2083">
    <path id="path2085" class="cls-2" d="M31.26,36.34l1.28-.8,3.27,3.18-1.62,1-2.93-3.38Z"/>
  </g>
  <g id="g2087">
    <path id="path2089" class="cls-2" d="M36.49,41.85l1.52-.9,4.59,4.05h-2.83s-3.27-3.15-3.27-3.15Z"/>
  </g>
  <g id="g2091">
    <path id="path2093" class="cls-2" d="M20.29,19.73l1.08-.6-1-2.8-1.05.36.97,3.04Z"/>
  </g>
  <g id="g2095">
    <path id="path2097" class="cls-2" d="M18.68,14.51l1.16-.22-.61-2.64-.95.09.4,2.77Z"/>
  </g>
  <g id="g2099">
    <path id="path2101" class="cls-2" d="M18.03,9.75l1.02-.05-.23-2.31h-.8s0,2.35,0,2.35Z"/>
  </g>
  <g id="g2103">
    <path id="path2105" class="cls-2" d="M18.1,5.3l.81.05.03-2.02-.61-.04-.24,2.01Z"/>
  </g>
  <g id="g2107">
    <path id="path2109" class="cls-2" d="M16.27,21.37c-1.69-7.21-1.35-14.39,1-21.37h-5.63C5.25-.03.04,5.02,0,11.41v21.79c-.01,2,.32,3.89,1.22,5.54,4.68-8.66,13.82-16.36,15.06-17.37"/>
  </g>
  <g id="g2111">
    <path id="path2113" class="cls-2" d="M18.16,0h-.3c-2.39,6.98-2.73,14.18-1,21.4l.04.17-.14.11c-.11.09-10.35,8.36-15.22,17.63.31.5.64.98,1.01,1.42,4.94-8.45,10.3-14.48,15.7-18.71-2.28-8.58-1.71-16.05-.1-22.02"/>
  </g>
  <g id="g2115">
    <path id="path2117" class="cls-2" d="M18.85,25.45l.66,1.55-2.57,3.03-1.18-1.18,3.09-3.4Z"/>
  </g>
  <g id="g2119">
    <path id="path2121" class="cls-2" d="M13.52,31.77l1.03,1.1-2.47,3.83-1.29-1.39,2.73-3.54Z"/>
  </g>
  <g id="g2123">
    <path id="path2125" class="cls-2" d="M8.48,38.58l1.18,1.31-2.58,4.38-1.8-1.42,3.21-4.27Z"/>
  </g>
</svg>