<?xml version="1.0" encoding="utf-8"?>
<!-- Generator: Adobe Illustrator 28.1.0, SVG Export Plug-In . SVG Version: 6.00 Build 0)  -->
<svg version="1.1"
	 id="svg2" xmlns:svg="http://www.w3.org/2000/svg" xmlns:sodipodi="http://sodipodi.sourceforge.net/DTD/sodipodi-0.dtd" xmlns:inkscape="http://www.inkscape.org/namespaces/inkscape" xmlns:rdf="http://www.w3.org/1999/02/22-rdf-syntax-ns#" xmlns:cc="http://creativecommons.org/ns#" xmlns:dc="http://purl.org/dc/elements/1.1/"
	 xmlns="http://www.w3.org/2000/svg" xmlns:xlink="http://www.w3.org/1999/xlink" x="0px" y="0px" viewBox="0 0 112.8 81"
	 style="enable-background:new 0 0 112.8 81;" xml:space="preserve">
<style type="text/css">
	.st0{fill-rule:evenodd;clip-rule:evenodd;fill:#003E7E;}
</style>
<sodipodi:namedview  bordercolor="#666666" borderopacity="1" fit-margin-bottom="0" fit-margin-left="0" fit-margin-right="0" fit-margin-top="0" gridtolerance="10" guidetolerance="10" id="namedview4" inkscape:current-layer="g10" inkscape:cx="341.03801" inkscape:cy="7.8764682" inkscape:pageopacity="0" inkscape:pageshadow="2" inkscape:window-height="480" inkscape:window-maximized="0" inkscape:window-width="708" inkscape:window-x="72" inkscape:window-y="274" inkscape:zoom="0.43628026" objecttolerance="10" pagecolor="#ffffff" showgrid="false">
	</sodipodi:namedview>
<g id="g134" transform="translate(323.337,610.958)">
	<path id="path136" inkscape:connector-curvature="0" class="st0" d="M-284.6-565.5l15.6,0l2.8,0c6.2,0,11.8-5,12.6-11.2
		c0.8-6.2-3.6-11.2-9.8-11.2c-6.2,0-6.9,0-8.4,0c-1.5,0-2.6-1.2-2.4-2.8c0.2-1.5,1.6-2.8,3.1-2.8h58.4l-2.4,19.4h-32.3l-5.4,44
		h-43.5l4.4-35.5H-284.6z M-210.6-611l-1.1,9.1h-58.4c-6.2,0-11.8,5-12.6,11.2c-0.8,6.2,3.6,11.2,9.8,11.2l8.4,0
		c1.5,0,2.6,1.2,2.4,2.8c-0.2,1.5-1.6,2.8-3.1,2.8l-3.9,0h-16.3l-5.8,0l-5.8,0h-4l-22.5,0l4.5-37H-210.6"/>
</g>
</svg>
