<?xml version="1.0" encoding="utf-8"?>
<!-- Generator: Adobe Illustrator 28.1.0, SVG Export Plug-In . SVG Version: 6.00 Build 0)  -->
<svg version="1.1"
	 id="svg11765" xmlns:svg="http://www.w3.org/2000/svg" xmlns:sodipodi="http://sodipodi.sourceforge.net/DTD/sodipodi-0.dtd" xmlns:inkscape="http://www.inkscape.org/namespaces/inkscape" xmlns:rdf="http://www.w3.org/1999/02/22-rdf-syntax-ns#" xmlns:cc="http://creativecommons.org/ns#" xmlns:dc="http://purl.org/dc/elements/1.1/"
	 xmlns="http://www.w3.org/2000/svg" xmlns:xlink="http://www.w3.org/1999/xlink" x="0px" y="0px" viewBox="0 0 80.6 80.6"
	 style="enable-background:new 0 0 80.6 80.6;" xml:space="preserve">
<style type="text/css">
	.st0{clip-path:url(#SVGID_00000141457284335919596680000007378578822637638296_);}
	.st1{fill:#EC4025;}
	.st2{fill:#FFFFFF;}
</style>
<sodipodi:namedview  bordercolor="#666666" borderopacity="1.0" fit-margin-bottom="2" fit-margin-left="2" fit-margin-right="2" fit-margin-top="2" id="namedview11769" inkscape:current-layer="layer1" inkscape:cx="181.65335" inkscape:cy="-1.606055" inkscape:document-units="mm" inkscape:pageopacity="0.0" inkscape:pageshadow="2" inkscape:window-height="405" inkscape:window-maximized="0" inkscape:window-width="463" inkscape:window-x="173" inkscape:window-y="271" inkscape:zoom="0.61399264" pagecolor="#ffffff" showgrid="false" units="mm">
	</sodipodi:namedview>
<g id="layer1" transform="translate(-311.29111,-330.25272)" inkscape:groupmode="layer" inkscape:label="Layer 1">
	<g id="g4606" transform="matrix(-1.25,0,0,1.25,1173.3771,301.14133)">
		<g>
			<defs>
				<rect id="SVGID_1_" x="-219.3" y="-293.7" width="2250" height="2880"/>
			</defs>
			<clipPath id="SVGID_00000057114739257296713110000000189865078156006079_">
				<use xlink:href="#SVGID_1_"  style="overflow:visible;"/>
			</clipPath>
			<g id="g4608" style="clip-path:url(#SVGID_00000057114739257296713110000000189865078156006079_);">
				<g id="g4614" transform="translate(619.5185,61.1994)">
					<path id="path4616" inkscape:connector-curvature="0" class="st1" d="M5.7-5.7c0,17.8,14.4,32.2,32.2,32.2S70.2,12.1,70.2-5.7
						S55.7-37.9,37.9-37.9S5.7-23.5,5.7-5.7"/>
				</g>
				<g id="g4618" transform="translate(649.6099,73.3783)">
					<path id="path4620" inkscape:connector-curvature="0" class="st1" d="M5.7-5.7c0,1.2,1,2.1,2.2,2.1c1.2,0,2.1-1,2.1-2.1
						S9-7.8,7.8-7.8C6.6-7.8,5.7-6.9,5.7-5.7"/>
				</g>
				<g id="g4622" transform="translate(636.0544,76.0794)">
					<path id="path4624" inkscape:connector-curvature="0" class="st2" d="M5.7-5.7c0,2.4,1.9,4.3,4.3,4.3h22.8
						c2.4,0,4.3-1.9,4.3-4.3v-31.4c0-2.4-1.9-4.3-4.3-4.3H10c-2.4,0-4.3,1.9-4.3,4.3V-5.7z"/>
				</g>
				<g id="g4626" transform="translate(661.7897,64.5889)">
					<path id="path4628" inkscape:connector-curvature="0" class="st1" d="M5.7-5.7c1.2,0,2.1-1,2.1-2.1v-16.3c0-1.2-1-2.1-2.1-2.1
						h-20.1c-1.2,0-2.1,1-2.1,2.1v16.3c0,1.2,1,2.1,2.1,2.1L5.7-5.7z"/>
				</g>
				<g id="g4630" transform="translate(641.7287,84.9865)">
					<path id="path4632" inkscape:connector-curvature="0" class="st2" d="M5.7-5.7c0,0.3,0.2,0.5,0.5,0.5h19c0.3,0,0.5-0.2,0.5-0.5
						v-1.1c0-0.3-0.2-0.5-0.5-0.5h-19C5.9-7.3,5.7-7,5.7-6.7V-5.7z"/>
				</g>
				<g id="g4634" transform="translate(659.9292,70.938)">
					<path id="path4636" inkscape:connector-curvature="0" class="st1" d="M5.7-5.7c0,1.2,1,2.2,2.1,2.2s2.1-1,2.1-2.2
						c0-1.2-1-2.1-2.2-2.1S5.7-6.9,5.7-5.7"/>
				</g>
				<g id="g4638" transform="translate(639.39,70.938)">
					<path id="path4640" inkscape:connector-curvature="0" class="st1" d="M5.7-5.7c0,1.2,1,2.2,2.1,2.2s2.1-1,2.1-2.2
						c0-1.2-1-2.1-2.1-2.1S5.7-6.9,5.7-5.7"/>
				</g>
			</g>
		</g>
	</g>
</g>
</svg>
